<svg width="8000" height="8000" viewBox="0 0 8000 8000" fill="none" xmlns="http://www.w3.org/2000/svg">
<g clip-path="url(#clip0_2202_774)">
<mask id="mask0_2202_774" style="mask-type:luminance" maskUnits="userSpaceOnUse" x="0" y="0" width="8000" height="8000">
<path d="M8000 0H0V8000H8000V0Z" fill="white"/>
</mask>
<g mask="url(#mask0_2202_774)">
<path d="M7450.88 3733.22C6960.74 4467.04 5914.83 6736.57 6172.1 7578.84L2419.8 7579.7C2419.8 7579.7 1877.59 7176.01 1350.86 6474.14C1255.13 6346.63 1159.92 6209.14 1068.66 6062.55C971.736 5907.19 879.281 5741.53 795.241 5566.23C551.033 5057.88 376.776 4468.76 369.729 3817.6C345.152 1563.54 2296.06 -531.384 4950.03 313.968C7604 1159.33 7940.84 2999.39 7450.88 3733.22Z" fill="#F7EFEC"/>
<path d="M5103.14 7605.42C5095.61 7605.42 5088.14 7602.13 5083.04 7595.8L3081.98 5107.78C3073.06 5096.69 3074.82 5080.46 3085.91 5071.53C3097 5062.64 3113.22 5064.38 3122.15 5075.46L5123.22 7563.47C5132.14 7574.57 5130.38 7590.8 5119.29 7599.73C5114.52 7603.55 5108.82 7605.42 5103.14 7605.42Z" fill="#D92500"/>
<path d="M1999.11 7605.42C1993.44 7605.42 1987.73 7603.55 1982.98 7599.73C1971.88 7590.8 1970.12 7574.57 1979.04 7563.47L3980.1 5075.46C3989.06 5064.38 4005.25 5062.64 4016.34 5071.53C4027.44 5080.46 4029.19 5096.69 4020.26 5107.78L2019.22 7595.8C2014.12 7602.13 2006.65 7605.42 1999.11 7605.42Z" fill="#FF3C00"/>
<path d="M4000.2 7605.42C3992.66 7605.42 3985.2 7602.13 3980.1 7595.8L1979.04 5107.78C1970.12 5096.69 1971.88 5080.46 1982.98 5071.53C1994.08 5062.64 2010.3 5064.38 2019.22 5075.46L4020.26 7563.47C4029.19 7574.57 4027.43 7590.8 4016.34 7599.73C4011.57 7603.55 4005.87 7605.42 4000.2 7605.42Z" fill="#FF3C00"/>
<path d="M2353.7 5157.67H1424.03C1387.56 5157.67 1357.98 5128.1 1357.98 5091.62C1357.98 5055.15 1387.56 5025.58 1424.03 5025.58H2353.7C2390.18 5025.58 2419.74 5055.15 2419.74 5091.62C2419.74 5128.1 2390.18 5157.67 2353.7 5157.67Z" fill="#D92500"/>
<path d="M5028.57 5157.67H2371.45C2334.97 5157.67 2305.4 5128.1 2305.4 5091.62C2305.4 5055.15 2334.97 5025.58 2371.45 5025.58H5028.57V5157.67Z" fill="#FF3C00"/>
<path d="M3071.81 6335.63C3071.81 6375.48 3039.5 6407.78 2999.66 6407.78C2959.81 6407.78 2927.51 6375.48 2927.51 6335.63C2927.51 6295.78 2959.81 6263.49 2999.66 6263.49C3039.5 6263.49 3071.81 6295.78 3071.81 6335.63Z" fill="#D92500"/>
<path d="M4174.74 6335.63C4174.74 6375.48 4142.43 6407.78 4102.59 6407.78C4062.74 6407.78 4030.44 6375.48 4030.44 6335.63C4030.44 6295.78 4062.74 6263.49 4102.59 6263.49C4142.43 6263.49 4174.74 6295.78 4174.74 6335.63Z" fill="#FF5A28"/>
<path d="M2746.44 4375.22H3570.83L3868.94 4948.98H3044.55L2746.44 4375.22Z" fill="#BC8F85"/>
<path d="M3061.24 4906.54L2814.4 4431.46C2809.22 4421.5 2816.46 4409.6 2827.68 4409.6H3540.86C3546.45 4409.6 3551.57 4412.7 3554.14 4417.66L3800.99 4892.74C3806.17 4902.7 3798.94 4914.61 3787.71 4914.61H3074.52C3068.94 4914.61 3063.82 4911.5 3061.24 4906.54Z" fill="white"/>
<path d="M3712.23 4948.99H3044.55V5025.58H3712.23V4948.99Z" fill="#E5C6BC"/>
<path d="M4285.86 4948.99H3627C3605.85 4948.99 3588.7 4966.14 3588.7 4987.29C3588.7 5008.44 3605.85 5025.58 3627 5025.58H4285.86C4307.02 5025.58 4324.16 5008.44 4324.16 4987.29C4324.16 4966.14 4307.02 4948.99 4285.86 4948.99Z" fill="#CBA89E"/>
<path d="M3044.55 4948.99L2746.44 4375.23L2731.5 4386.44C2721.85 4393.67 2718.89 4406.85 2724.5 4417.53L3044.55 5025.58V4948.99Z" fill="#E5C6BC"/>
<path d="M3344.7 4997.48H3271.2V4984.73H3344.7V4997.48Z" fill="#CBA89E"/>
<path d="M3437.1 4997.48H3363.59V4984.73H3437.1V4997.48Z" fill="#CBA89E"/>
<path d="M3529.49 4997.48H3455.98V4984.73H3529.49V4997.48Z" fill="#CBA89E"/>
<path d="M1985.34 4515.86C1985 4538.2 1982.94 4559.34 1978.82 4578.06H1781.7C1723.78 4539.58 1629.26 4463.44 1572.54 4349.15C1625.3 4406.55 1715.36 4476.5 1807.13 4497.81C1887.22 4516.37 1946.85 4508.46 1985.34 4515.86Z" fill="#080706"/>
<path d="M2443.17 3733.22C2421.17 3813.13 2320.29 3968.14 2228.18 4134.15C2127.47 4315.3 2037.42 4509.32 2072.65 4632.54C2081.41 4663.47 2085.37 4686.16 2085.37 4702.49C2085.71 4756.1 2044.98 4739.44 2003.91 4709.02C1961.97 4677.92 1919.52 4632.54 1919.52 4632.54L1922.62 4393.66C1922.62 4393.66 1787.19 4269.24 1898.39 3997.02C1905.43 3979.83 1913.51 3961.96 1922.62 3943.4C2075.74 3634.06 2305.34 3309.43 2087.95 3217.49C2388.18 3199.1 2489.23 3566 2443.17 3733.22Z" fill="#B9784F"/>
<path d="M2087.94 3217.5C2087.94 3217.5 2093.25 3218.38 2102.9 3221.26C2112.5 3224.27 2126.39 3229.58 2142.81 3238.76C2159.25 3247.84 2178.03 3261.37 2195.96 3280.52C2213.91 3299.57 2231.06 3324.1 2244.46 3353.53C2257.28 3383.18 2266.66 3417.09 2272.01 3453.71C2274.87 3472.02 2273.87 3491.34 2271.5 3510.55C2269.04 3529.84 2264.71 3549.26 2259.46 3568.74C2248.86 3607.68 2234.46 3646.87 2218.51 3686.06C2202.54 3725.26 2184.98 3764.52 2166.88 3803.5C2130.67 3881.48 2092.54 3958.5 2058.46 4031.47C2024.34 4104.4 1994.16 4173.3 1973.02 4234.05C1962.49 4264.41 1954.03 4292.66 1948.46 4318.1C1942.74 4343.5 1939.85 4366.04 1939.42 4384.59C1938.86 4403.15 1940.81 4417.62 1942.99 4427.17C1943.95 4432 1945.15 4435.57 1945.92 4437.98C1946.67 4440.38 1947.06 4441.62 1947.06 4441.62L1947.15 4441.9C1947.69 4443.63 1946.73 4445.46 1945.01 4446C1943.28 4446.54 1941.45 4445.58 1940.9 4443.86V4443.84C1940.9 4443.84 1940.5 4442.53 1939.7 4439.98C1938.9 4437.42 1937.66 4433.65 1936.67 4428.58C1934.42 4418.53 1932.49 4403.46 1933.15 4384.42C1933.69 4365.38 1936.75 4342.45 1942.66 4316.79C1948.42 4291.09 1957.07 4262.68 1967.81 4232.22C1989.35 4171.27 2019.91 4102.39 2054.41 4029.57C2088.86 3956.7 2127.36 3879.86 2163.91 3802.12C2182.18 3763.25 2199.9 3724.12 2216.05 3685.06C2232.16 3646 2246.71 3606.95 2257.46 3568.18C2267.94 3529.57 2275.45 3490.53 2270.5 3453.92C2265.34 3417.39 2256.16 3383.56 2243.54 3353.94C2230.32 3324.56 2213.34 3300.02 2195.52 3280.94C2177.74 3261.74 2159.05 3248.14 2142.66 3239.01C2126.31 3229.75 2112.46 3224.39 2102.88 3221.34C2093.25 3218.4 2087.94 3217.5 2087.94 3217.5Z" fill="#080706"/>
<path d="M2305.34 4215.96C2213.58 4457.94 2305.34 4641.47 2167.51 4667.6C2104.45 4679.62 2076.6 4632.88 2065.09 4578.58C2051.34 4514.3 2060.45 4439.54 2060.45 4439.54C2060.45 4439.54 2083.82 4379.74 2132.97 4321.65C2173.02 4274.39 2229.9 4228.34 2305.34 4215.96Z" fill="#725644"/>
<path d="M1985.34 4515.85C1984.83 4572.22 1972.11 4620 1945.99 4645.09C1943.41 4647.67 1940.83 4649.9 1938.42 4651.78C1873.3 4704.54 1831.7 4607.97 1831.7 4607.97C1831.7 4607.97 1658.47 4522.55 1572.54 4349.14C1506.73 4215.96 1492.12 4030.7 1646.96 3792.5C1669.65 3962.13 1762.62 4077.62 1854.74 4187.26V4187.43C1866.25 4201.18 1877.59 4214.58 1888.94 4228.16C1952.69 4304.63 1986.2 4422.18 1985.34 4515.85Z" fill="#E5C6BC"/>
<path d="M1646.9 3792.54C1646.9 3792.54 1643.6 3806.14 1639.88 3830.3C1638.06 3842.38 1636.08 3857.08 1634.46 3874.02C1632.9 3890.96 1631.48 3910.12 1631.1 3931.06C1630.85 3941.52 1630.66 3952.42 1631.08 3963.7C1631.22 3969.34 1631.35 3975.08 1631.5 3980.9C1631.89 3986.71 1632.29 3992.62 1632.69 3998.59C1634.16 4022.53 1637.64 4047.62 1642.47 4073.3C1644.9 4086.14 1648.51 4098.94 1651.53 4112.04C1655.79 4124.78 1659.35 4137.95 1664.34 4150.71C1666.94 4157.05 1669.55 4163.42 1672.17 4169.8L1676.14 4179.34L1680.7 4188.71C1686.74 4201.24 1693.63 4213.26 1700.77 4225.24C1729.9 4272.83 1766.88 4314.9 1801.68 4353.95C1819.09 4373.52 1835.9 4392.51 1851.01 4411.27C1866.16 4429.98 1879.5 4448.6 1890.1 4466.89C1900.75 4485.14 1908.62 4503.03 1913.77 4519.5C1918.99 4535.94 1921.59 4550.89 1922.58 4563.25C1923.3 4569.42 1923.44 4574.95 1923.46 4579.77C1923.65 4584.59 1923.55 4588.69 1923.29 4592C1922.94 4598.63 1922.75 4602.17 1922.75 4602.17C1922.66 4603.98 1921.12 4605.36 1919.31 4605.27C1917.5 4605.18 1916.12 4603.63 1916.22 4601.83V4601.81L1916.23 4601.58C1916.23 4601.58 1916.43 4598.14 1916.82 4591.7C1917.1 4588.49 1917.22 4584.51 1917.07 4579.84C1917.09 4575.16 1916.99 4569.78 1916.34 4563.8C1915.47 4551.81 1913.06 4537.3 1908.09 4521.26C1903.2 4505.2 1895.66 4487.66 1885.31 4469.66C1875.02 4451.61 1861.99 4433.1 1847.08 4414.41C1832.21 4395.66 1815.58 4376.61 1798.33 4356.91C1763.82 4317.61 1726.94 4275.05 1697.97 4226.94C1690.9 4214.87 1683.98 4202.58 1678.02 4190L1673.53 4180.59C1672.11 4177.36 1670.9 4174.14 1669.58 4170.91C1666.99 4164.46 1664.42 4158.04 1661.85 4151.64C1656.93 4138.77 1653.44 4125.5 1649.26 4112.66C1646.31 4099.49 1642.78 4086.59 1640.44 4073.69C1635.78 4047.88 1632.47 4022.7 1631.17 3998.7C1630.82 3992.7 1630.46 3986.78 1630.11 3980.96C1630.01 3975.12 1629.91 3969.38 1629.82 3963.73C1629.48 3952.42 1629.75 3941.5 1630.08 3931.02C1630.62 3910.07 1632.18 3890.9 1633.86 3873.96C1635.6 3857.02 1637.7 3842.32 1639.6 3830.25C1643.5 3806.11 1646.9 3792.54 1646.9 3792.54Z" fill="#080706"/>
<path d="M2305.4 4215.96C2305.4 4215.96 2300.33 4221.55 2291.82 4231.64C2283.22 4241.66 2271.34 4256.31 2257.32 4274.08C2250.51 4283.11 2242.9 4292.71 2235.28 4303.2C2227.64 4313.67 2219.49 4324.65 2211.54 4336.34C2203.37 4347.88 2195.3 4360.05 2187.26 4372.53C2178.95 4384.82 2171.43 4397.9 2163.52 4410.72C2155.72 4423.61 2148.7 4436.95 2141.38 4449.84C2134.63 4463.03 2128.05 4476.05 2121.86 4488.73C2116.26 4501.67 2110.55 4514.06 2105.68 4526.01C2101.23 4538.13 2097.02 4549.58 2093.14 4560.16C2090.06 4570.98 2087.23 4580.9 2084.74 4589.69C2081.88 4598.39 2081.12 4606.37 2079.7 4612.75C2077.26 4625.62 2075.87 4632.96 2075.87 4632.96L2075.81 4633.3C2075.47 4635.07 2073.76 4636.23 2071.98 4635.9C2070.21 4635.56 2069.04 4633.86 2069.38 4632.08L2069.39 4632.03C2069.39 4632.03 2070.9 4624.58 2073.55 4611.52C2075.08 4605.06 2075.98 4596.94 2078.98 4588.17C2081.64 4579.31 2084.63 4569.31 2087.9 4558.4C2091.97 4547.78 2096.37 4536.28 2101.02 4524.11C2106.1 4512.13 2112.02 4499.74 2117.82 4486.8C2124.22 4474.14 2131.01 4461.14 2137.96 4447.98C2145.5 4435.14 2152.72 4421.86 2160.71 4409.03C2168.82 4396.28 2176.54 4383.28 2185.03 4371.06C2193.26 4358.67 2201.5 4346.59 2209.85 4335.15C2217.96 4323.54 2226.27 4312.67 2234.06 4302.3C2241.83 4291.9 2249.58 4282.38 2256.52 4273.44C2270.78 4255.86 2282.87 4241.37 2291.6 4231.46C2300.26 4221.48 2305.4 4215.96 2305.4 4215.96Z" fill="#080706"/>
<path d="M2249.66 4638.56L2190.88 4999.46C2187.96 5014.58 2174.73 5025.58 2159.26 5025.58H1793.04C1777.57 5025.58 1764.34 5014.58 1761.42 4999.46L1713.65 4706.44L1702.65 4638.56C1699.04 4618.79 1714.16 4600.58 1734.26 4600.58H2218.04C2238.15 4600.58 2253.27 4618.79 2249.66 4638.56Z" fill="#E5C6BC"/>
<path d="M2305.34 4712.11H1646.97L1664.31 4613.81C1668.1 4593.18 1685.97 4578.06 1706.94 4578.06H2245.53C2266.32 4578.06 2284.37 4593.18 2287.98 4613.81L2305.34 4712.11Z" fill="#BC8F85"/>
<path d="M2060.45 4439.55C2060.45 4439.55 2051.34 4513.97 2064.92 4578.07H1978.82C1982.94 4559.34 1985 4538.2 1985.34 4515.86C1986.21 4422.19 1952.7 4304.65 1888.94 4228.17C1877.59 4214.59 1866.25 4201.18 1854.74 4187.44V4187.27C1856.11 4134.5 1868.14 4071.26 1898.38 3997.02C1903.37 4083.81 1924.68 4234.7 2011.3 4250.68C2077.12 4262.71 2162.87 4197.41 2228.18 4134.16C2193.64 4196.2 2160.46 4259.79 2132.97 4321.66C2083.82 4379.74 2060.45 4439.55 2060.45 4439.55Z" fill="#080706"/>
<path d="M2011.64 5025.58H1793.04C1777.57 5025.58 1764.34 5014.58 1761.42 4999.46L1714.5 4712.12H1903.37C1898.73 4752.34 1893.06 4827.43 1907.32 4885.7C1918.5 4931.92 1959.05 4991.38 2011.64 5025.58Z" fill="#080706"/>
<path d="M6698.83 5777.96C6648.48 5924.04 6588.33 6051.55 6525.43 6166.7C6308.03 6563.86 6055.58 6816.49 6046.12 7186.83C6046.12 7186.83 5967.76 6837.97 6030.66 6440.46C6065.89 6217.22 6145.62 5978.69 6308.72 5777.96C6762.59 5219.77 6695.39 4712.11 6695.39 4712.11C6695.39 4712.11 6922.94 5128.52 6698.83 5777.96Z" fill="#725644"/>
<path d="M6169.3 6751.38C6169.3 6751.38 6168.88 6749.38 6168.4 6745.22C6167.8 6741.09 6167.18 6735 6166.58 6727.1C6165.84 6719.18 6165.66 6709.41 6165.25 6697.92C6165.43 6686.45 6164.99 6673.22 6166.05 6658.49C6166.98 6628.93 6171.48 6593.3 6178.14 6552.75C6180.19 6542.69 6182.32 6532.3 6184.5 6521.6C6185.6 6516.26 6186.72 6510.83 6187.86 6505.34C6189.26 6499.9 6190.69 6494.4 6192.14 6488.82C6195.03 6477.66 6198 6466.22 6201.03 6454.51C6204.44 6442.91 6208.35 6431.17 6212.12 6419.1C6219.18 6394.8 6229.09 6370.39 6238.58 6344.86C6243.08 6331.98 6249.01 6319.45 6254.59 6306.54C6260.24 6293.66 6265.98 6280.58 6271.8 6267.33C6278.29 6254.39 6284.86 6241.28 6291.52 6228.01C6298.39 6214.85 6304.55 6201.1 6312.23 6187.98C6319.78 6174.79 6327.4 6161.46 6335.1 6148.01C6342.82 6134.55 6350.36 6120.82 6359.19 6107.74C6392.9 6054.28 6430.32 6001.02 6461.51 5942.86C6493.14 5884.9 6521.15 5823.79 6546.03 5761.46C6595.7 5636.69 6633.3 5507.27 6660.63 5384.35C6687.98 5261.4 6705.52 5144.9 6714.58 5044.53C6723.32 4944.15 6723.95 4859.81 6717.32 4801.34C6713.95 4772.18 6709.69 4749.34 6704.41 4734.48C6702.38 4726.84 6699.51 4721.48 6697.91 4717.74C6696.25 4714.03 6695.38 4712.11 6695.38 4712.11C6695.38 4712.11 6696.26 4714.02 6697.94 4717.73C6699.55 4721.46 6702.46 4726.81 6704.51 4734.44C6709.87 4749.29 6714.25 4772.12 6717.75 4801.3C6724.66 4859.77 6724.43 4944.18 6716.15 5044.66C6707.55 5145.15 6690.54 5261.82 6663.74 5385.04C6636.95 5508.22 6599.92 5638 6550.72 5763.31C6526.06 5825.92 6498.26 5887.36 6466.77 5945.71C6435.65 6004.41 6398.34 6058.13 6364.76 6111.18C6355.95 6124.23 6348.45 6137.9 6340.76 6151.3C6333.09 6164.7 6325.5 6177.98 6317.98 6191.11C6310.34 6204.18 6304.2 6217.86 6297.36 6230.96C6290.74 6244.18 6284.18 6257.23 6277.73 6270.11C6271.94 6283.3 6266.22 6296.31 6260.6 6309.13C6255.05 6321.98 6249.14 6334.45 6244.67 6347.26C6235.24 6372.66 6225.36 6396.94 6218.35 6421.1C6214.62 6433.1 6210.72 6444.78 6207.33 6456.31C6204.31 6467.94 6201.37 6479.32 6198.49 6490.4C6197.06 6495.94 6195.63 6501.42 6194.23 6506.81C6193.11 6512.27 6192 6517.66 6190.9 6522.97C6188.74 6533.59 6186.62 6543.91 6184.58 6553.9C6177.98 6594.16 6173.5 6629.51 6172.59 6658.78C6171.54 6673.39 6171.98 6686.46 6171.79 6697.82C6172.21 6709.14 6172.38 6718.82 6173.11 6726.59C6173.7 6734.4 6174.3 6740.32 6174.88 6744.25C6175.32 6748.18 6175.75 6750.3 6175.75 6750.3C6176.11 6752.07 6174.98 6753.8 6173.21 6754.16C6171.43 6754.52 6169.7 6753.38 6169.34 6751.61L6169.3 6751.38Z" fill="#080706"/>
<path d="M6525.44 6166.7C6308.04 6563.86 6055.58 6816.48 6046.14 7186.83C6046.14 7186.83 5967.77 6837.97 6030.66 6440.46C6171.58 6382.89 6369.74 6289.06 6525.44 6166.7Z" fill="#080706"/>
<path d="M6172.16 7578.9C6172.16 7578.9 6013.41 7307.46 6389.11 6972.54C6764.81 6637.6 7058.84 6194.62 7001.67 5836.22C6642.3 6253.74 5686.71 6845.77 5956.24 7578.84L6172.16 7578.9Z" fill="#B9784F"/>
<path d="M7001.67 5836.22C7001.67 5836.22 6998.62 5843.77 6991.84 5857.44C6985.19 5871.17 6974.81 5891 6960.51 5915.62C6953.27 5927.88 6945.31 5941.49 6935.96 5955.89C6926.97 5970.51 6916.48 5985.82 6905.34 6002.23C6894.25 6018.68 6881.51 6035.51 6868.51 6053.58C6861.7 6062.37 6854.7 6071.38 6847.54 6080.61C6840.41 6089.86 6833.11 6099.33 6825.19 6108.62C6809.59 6127.39 6793.52 6147.11 6775.73 6166.52C6766.94 6176.3 6758.15 6186.41 6748.95 6196.4C6739.55 6206.22 6730.01 6216.18 6720.34 6226.29C6681.71 6266.77 6638.59 6307.1 6592.99 6347.67C6569.99 6367.74 6545.9 6387.3 6521.9 6407.56C6509.87 6417.64 6497.78 6427.78 6485.63 6437.98C6473.91 6448.66 6461.94 6459.16 6450.27 6470.1C6403.75 6514.05 6359.91 6562.27 6319.62 6613.27C6238.97 6715.26 6172.71 6828.38 6124.99 6940.45C6077.08 7052.48 6048.13 7163.61 6037.67 7260.38C6032.35 7308.75 6031.59 7353.47 6033.93 7392.87C6034.7 7412.62 6037.39 7430.91 6039.28 7447.88C6040.77 7456.28 6042.19 7464.34 6043.55 7472.05C6044.27 7475.9 6044.84 7479.67 6045.62 7483.32C6046.5 7486.94 6047.35 7490.46 6048.19 7493.9C6049.86 7500.78 6051.43 7507.29 6052.92 7513.42C6054.54 7519.5 6056.51 7525.08 6058.09 7530.34C6061.34 7540.83 6064.1 7549.76 6067.11 7556.72C6072.67 7570.82 6075.63 7578.33 6075.63 7578.33L6075.71 7578.55C6076.38 7580.23 6075.55 7582.14 6073.87 7582.8C6072.19 7583.46 6070.28 7582.63 6069.63 7580.95L6069.62 7580.94C6069.62 7580.94 6066.64 7573.31 6061.06 7559C6058.03 7551.93 6055.25 7542.87 6051.99 7532.23C6050.4 7526.9 6048.43 7521.24 6046.82 7515.07C6045.33 7508.87 6043.75 7502.28 6042.09 7495.32C6041.25 7491.84 6040.4 7488.26 6039.52 7484.59C6038.75 7480.91 6038.18 7477.09 6037.47 7473.2C6036.11 7465.41 6034.7 7457.26 6033.23 7448.76C6031.37 7431.62 6028.71 7413.14 6028 7393.22C6025.76 7353.46 6026.67 7308.42 6032.18 7259.76C6043.02 7162.43 6072.46 7050.94 6120.87 6938.69C6169.1 6826.4 6235.9 6713.21 6317.06 6611.24C6357.6 6560.25 6401.69 6512.06 6448.45 6468.16C6460.18 6457.22 6472.23 6446.72 6484.01 6436.06C6496.21 6425.89 6508.35 6415.77 6520.41 6405.72C6544.45 6385.55 6568.59 6366.09 6591.62 6346.11C6637.31 6305.73 6680.51 6265.56 6719.25 6225.23C6728.94 6215.17 6738.51 6205.23 6747.92 6195.46C6757.15 6185.5 6765.97 6175.43 6774.79 6165.68C6792.63 6146.34 6808.75 6126.68 6824.39 6107.97C6832.35 6098.71 6839.67 6089.27 6846.83 6080.05C6854.01 6070.85 6861.03 6061.86 6867.87 6053.09C6880.91 6035.08 6893.71 6018.3 6904.84 6001.89C6916.03 5985.53 6926.57 5970.25 6935.6 5955.66C6944.99 5941.3 6952.99 5927.71 6960.26 5915.48C6974.63 5890.9 6985.08 5871.11 6991.77 5857.4C6998.59 5843.76 7001.67 5836.22 7001.67 5836.22Z" fill="#080706"/>
<path d="M780.144 5612.59C780.144 5612.59 584.128 5433.95 479.992 4987.29C1080.3 5496.21 1227.31 5949.48 1227.31 5949.48L780.144 5612.59Z" fill="#725644"/>
<path d="M479.984 4987.29C479.984 4987.29 604.576 5167.02 722.4 5351.28C737 5374.39 751.88 5397.33 766.032 5420.22C780.224 5443.09 794.4 5465.46 807.576 5487.46C820.88 5509.37 833.808 5530.51 845.56 5550.87C857.488 5571.12 868.72 5590.3 878.584 5608.3C888.624 5626.19 897.856 5642.59 905.384 5657.5C912.944 5672.38 920.176 5685 925.016 5696.01C935.16 5717.77 940.952 5730.2 940.952 5730.2C941.72 5731.84 941.008 5733.79 939.376 5734.55C937.736 5735.31 935.784 5734.61 935.024 5732.97L935.016 5732.94L934.928 5732.76C934.928 5732.76 929.264 5720.38 919.36 5698.71C914.648 5687.77 907.52 5675.1 900.112 5660.23C892.728 5645.34 883.64 5628.91 873.752 5610.98C864.048 5592.94 852.976 5573.71 841.216 5553.4C829.632 5532.98 816.872 5511.76 803.744 5489.77C790.744 5467.7 776.744 5445.23 762.736 5422.27C748.76 5399.29 734.064 5376.25 719.632 5353.04C603.232 5167.95 479.984 4987.29 479.984 4987.29Z" fill="#080706"/>
<path d="M1215.09 5863.72C1107.16 5766.45 947.328 5670.04 795.24 5566.24C592.96 5428.24 404.44 5276.66 369.552 5091.58C290.152 5759.58 1067.12 6060.32 1067.12 6060.32L1068.66 6062.56L1350.86 6474.15C1350.86 6474.15 1466.17 6090.4 1215.09 5863.72Z" fill="#B9784F"/>
<path d="M369.561 5091.57C369.561 5091.57 369.201 5098.54 369.953 5111.57C370.801 5124.57 372.281 5143.71 376.961 5167.63C378.833 5179.67 382.401 5192.7 385.737 5206.98C389.985 5221.03 393.969 5236.42 400.137 5252.24C405.441 5268.37 413.073 5284.74 420.585 5302.21C424.673 5310.79 429.345 5319.36 433.865 5328.26C436.185 5332.69 438.409 5337.22 440.881 5341.69C443.529 5346.05 446.217 5350.46 448.921 5354.92C469.681 5391.17 497.585 5427.06 529.537 5462.52C537.849 5471.1 546.273 5479.81 554.801 5488.62C558.937 5493.15 563.569 5497.23 568.249 5501.31C572.889 5505.42 577.553 5509.57 582.249 5513.73C600.777 5530.62 620.705 5546.87 641.809 5562.18C683.689 5593.26 728.985 5622.6 775.033 5652.3C821.105 5681.99 868.041 5711.99 914.001 5743.51C959.977 5774.97 1004.84 5808.17 1046.9 5843.46C1088.94 5878.74 1128.06 5916.26 1162.56 5955.62C1197.1 5994.93 1226.9 6036.09 1251.4 6077.4C1275.72 6118.84 1294.22 6160.5 1308.63 6199.83C1312 6209.76 1315.29 6219.48 1318.5 6228.98C1321.66 6238.5 1323.86 6248.07 1326.47 6257.26C1331.94 6275.58 1335.22 6293.42 1338.7 6310.1C1339.57 6314.26 1340.42 6318.37 1341.26 6322.4C1341.86 6326.47 1342.46 6330.48 1343.05 6334.42C1344.18 6342.29 1345.29 6349.88 1346.34 6357.17C1348.82 6371.71 1349.47 6385.26 1350.62 6397.42C1353.19 6421.76 1353.12 6440.99 1353.58 6454.08C1353.94 6467.17 1354.13 6474.15 1354.13 6474.15C1354.18 6475.96 1352.76 6477.46 1350.95 6477.51C1349.14 6477.57 1347.64 6476.14 1347.58 6474.34V6474.32V6474.14C1347.58 6474.14 1347.42 6467.21 1347.1 6454.21C1346.7 6441.21 1346.84 6422.1 1344.37 6397.94C1343.28 6385.86 1342.69 6372.4 1340.28 6357.96C1339.26 6350.72 1338.19 6343.18 1337.09 6335.37C1336.52 6331.46 1335.94 6327.48 1335.36 6323.43C1334.54 6319.43 1333.71 6315.35 1332.87 6311.22C1329.47 6294.66 1326.29 6276.94 1320.93 6258.74C1318.35 6249.62 1316.22 6240.1 1313.12 6230.65C1309.96 6221.21 1306.73 6211.55 1303.43 6201.69C1289.27 6162.61 1271.06 6121.19 1247.06 6079.94C1222.89 6038.82 1193.42 5997.81 1159.19 5958.56C1125.01 5919.27 1086.18 5881.77 1044.39 5846.43C1002.6 5811.09 957.945 5777.79 912.137 5746.21C866.361 5714.56 819.553 5684.4 773.585 5654.54C727.633 5624.66 682.425 5595.14 640.561 5563.82C619.449 5548.4 599.609 5532.1 581.057 5515.06C576.369 5510.88 571.705 5506.71 567.073 5502.57C562.401 5498.46 557.777 5494.36 553.641 5489.79C545.129 5480.94 536.713 5472.18 528.417 5463.54C496.521 5427.89 468.705 5391.82 448.041 5355.44C445.345 5350.97 442.673 5346.54 440.033 5342.16C437.577 5337.68 435.369 5333.13 433.057 5328.69C428.569 5319.76 423.921 5311.15 419.857 5302.55C412.393 5285.02 404.817 5268.61 399.561 5252.44C393.457 5236.58 389.521 5221.17 385.321 5207.1C382.033 5192.78 378.513 5179.74 376.681 5167.68C372.089 5143.74 370.681 5124.58 369.881 5111.57C369.177 5098.54 369.561 5091.57 369.561 5091.57Z" fill="#080706"/>
<path d="M6746.42 7876.98H1526.35C1444.02 7876.98 1377.28 7810.24 1377.28 7727.91C1377.28 7645.58 1444.02 7578.84 1526.35 7578.84H6746.42C6828.74 7578.84 6895.49 7645.58 6895.49 7727.91C6895.49 7810.24 6828.74 7876.98 6746.42 7876.98Z" fill="#F7EFEC"/>
<path d="M4660.46 4972.99C4621.96 5026.61 4553.05 5108.42 4496.34 5100.17C4494.27 5099.82 4492.04 5099.48 4489.29 5098.96C4381.02 5079.89 3744.3 4920.23 3714.22 4914.22C3683.63 4908.2 3469.32 4906.14 3481.53 4883.62C3493.73 4861.11 3616.26 4789.79 3648.91 4791.51C3681.57 4793.23 3810.29 4830.52 3938.83 4826.4C4067.55 4822.45 4404.39 4826.4 4404.39 4826.4L4420.72 4798.22L4444.78 4756.62C4438.07 4881.39 4588.45 4983.13 4660.46 4972.99Z" fill="#FB9F83"/>
<path d="M3303.82 7284.79C3303.82 7284.79 3243.33 7444.28 3190.91 7528.66C3170.12 7562.34 3150.36 7584.18 3136.43 7578.85C3087.46 7560.46 2595.26 7141.98 2642.35 7111.39C2649.22 7106.92 2660.22 7103.83 2673.98 7102.12C2716.77 7096.62 2787.74 7102.62 2853.39 7109.33C2909.76 7115.17 2962.18 7121.54 2989.5 7121.54C3058.93 7121.54 3068.04 7101.08 3068.04 7101.08C3069.58 7109.15 3082.65 7124.46 3102.06 7143.02C3162.9 7200.76 3285.26 7289.43 3303.82 7284.79Z" fill="#3A1B07"/>
<path d="M3102.06 7143.02C2997.75 7212.1 2888.95 7170.51 2867.47 7154.7C2851.66 7143.18 2851.66 7121.7 2853.38 7109.33C2909.75 7115.18 2962.17 7121.54 2989.49 7121.54C3058.92 7121.54 3068.03 7101.08 3068.03 7101.08C3069.58 7109.16 3082.65 7124.46 3102.06 7143.02Z" fill="#65361A"/>
<path d="M3190.91 7528.66C3170.12 7562.34 3150.35 7584.17 3136.43 7578.84C3087.46 7560.45 2595.26 7141.98 2642.34 7111.39C2649.22 7106.92 2660.22 7103.82 2673.97 7102.11L3190.91 7528.66Z" fill="#65361A"/>
<mask id="mask1_2202_774" style="mask-type:luminance" maskUnits="userSpaceOnUse" x="1025" y="1954" width="912" height="566">
<path d="M1025.55 1954.18V2519.54H1936.11V1954.18H1025.55Z" fill="white"/>
</mask>
<g mask="url(#mask1_2202_774)">
<path d="M1884.78 2056.85H1076.89C1048.54 2056.85 1025.55 2033.87 1025.55 2005.53C1025.55 1977.18 1048.54 1954.19 1076.89 1954.19H1884.78C1913.13 1954.19 1936.1 1977.18 1936.1 2005.53C1936.1 2033.87 1913.13 2056.85 1884.78 2056.85Z" fill="#B9784F"/>
<path d="M1579.77 2279.98H1076.89C1048.55 2279.98 1025.56 2257 1025.56 2228.66C1025.56 2200.3 1048.55 2177.32 1076.89 2177.32H1579.77C1608.12 2177.32 1631.1 2200.3 1631.1 2228.66C1631.1 2257 1608.12 2279.98 1579.77 2279.98Z" fill="#FF3C00"/>
<path d="M1579.77 2519.54H1076.89C1048.55 2519.54 1025.56 2496.57 1025.56 2468.22C1025.56 2439.87 1048.55 2416.89 1076.89 2416.89H1579.77C1608.12 2416.89 1631.1 2439.87 1631.1 2468.22C1631.1 2496.57 1608.12 2519.54 1579.77 2519.54Z" fill="#FF3C00"/>
</g>
<mask id="mask2_2202_774" style="mask-type:luminance" maskUnits="userSpaceOnUse" x="5792" y="2807" width="1659" height="566">
<path d="M5792.88 2807.09V3372.45H7450.86V2807.09H5792.88Z" fill="white"/>
</mask>
<g mask="url(#mask2_2202_774)">
<path d="M7399.54 2909.74H5844.22C5815.86 2909.74 5792.88 2886.77 5792.88 2858.42C5792.88 2830.07 5815.86 2807.09 5844.22 2807.09H7399.54C7427.89 2807.09 7450.87 2830.07 7450.87 2858.42C7450.87 2886.77 7427.89 2909.74 7399.54 2909.74Z" fill="#FF3C00"/>
<path d="M6844.16 3132.87H5844.22C5815.87 3132.87 5792.89 3109.9 5792.89 3081.55C5792.89 3053.2 5815.87 3030.22 5844.22 3030.22H6844.16C6872.5 3030.22 6895.48 3053.2 6895.48 3081.55C6895.48 3109.9 6872.5 3132.87 6844.16 3132.87Z" fill="#B9784F"/>
<path d="M6844.16 3372.44H5844.22C5815.87 3372.44 5792.89 3349.46 5792.89 3321.12C5792.89 3292.77 5815.87 3269.78 5844.22 3269.78H6844.16C6872.5 3269.78 6895.48 3292.77 6895.48 3321.12C6895.48 3349.46 6872.5 3372.44 6844.16 3372.44Z" fill="#B9784F"/>
</g>
<path d="M3214.74 3053.58H2278.14C2231.9 3053.58 2194.41 3016.1 2194.41 2969.86V2273.31C2194.41 2227.06 2231.9 2189.57 2278.14 2189.57H3214.74C3260.99 2189.57 3298.48 2227.06 3298.48 2273.31V2969.86C3298.48 3016.1 3260.99 3053.58 3214.74 3053.58Z" fill="#B9784F"/>
<path d="M2986.04 2571.1H2951.37C2946.06 2552.17 2938.2 2534.2 2927.98 2517.77L2954.73 2491.03C2964.92 2480.84 2964.92 2464.3 2954.73 2454.1L2917.09 2416.46C2906.89 2406.26 2890.36 2406.26 2880.16 2416.46L2851.73 2444.9C2836.02 2436.06 2819.18 2429.12 2801.41 2424.61V2381.99C2801.41 2367.57 2789.71 2355.87 2775.3 2355.87H2722.06C2707.65 2355.87 2695.95 2367.57 2695.95 2381.99V2425.1C2678.7 2429.55 2662.34 2436.1 2647.1 2444.51L2615.89 2413.3C2605.69 2403.1 2589.16 2403.1 2578.96 2413.3L2541.32 2450.94C2531.13 2461.13 2531.13 2477.67 2541.32 2487.87L2570.22 2516.77C2560.55 2532.14 2552.97 2548.91 2547.5 2566.62H2506.85C2492.42 2566.62 2480.74 2578.3 2480.74 2592.73V2645.97C2480.74 2660.38 2492.42 2672.07 2506.85 2672.07H2542.46C2546.47 2691.74 2553.22 2710.5 2562.48 2727.82L2538.16 2752.14C2527.96 2762.34 2527.96 2778.87 2538.16 2789.07L2575.8 2826.7C2586 2836.9 2602.53 2836.9 2612.72 2826.7L2633.86 2805.58C2651.48 2817.06 2670.87 2825.91 2691.48 2831.64V2861.18C2691.48 2875.6 2703.17 2887.3 2717.59 2887.3H2770.82C2785.24 2887.3 2796.93 2875.6 2796.93 2861.18V2833.62C2818.27 2828.6 2838.37 2820.46 2856.66 2809.52L2877 2829.87C2887.19 2840.06 2903.73 2840.06 2913.92 2829.87L2951.56 2792.23C2961.76 2782.04 2961.76 2765.5 2951.56 2755.31L2930.68 2734.42C2941.04 2716.61 2948.83 2697.18 2953.62 2676.55H2986.04C3000.46 2676.55 3012.14 2664.86 3012.14 2650.44V2597.22C3012.14 2582.79 3000.46 2571.1 2986.04 2571.1ZM2774.9 2760.42C2680.34 2778.3 2599.11 2697.07 2616.99 2602.52C2626.98 2549.7 2669.58 2507.1 2722.4 2497.1C2816.95 2479.22 2898.18 2560.46 2880.3 2655.02C2870.31 2707.84 2827.72 2750.42 2774.9 2760.42Z" fill="white"/>
<path d="M5470.28 2742.31H3146.38V2670.97C3146.38 2651.73 3161.98 2636.13 3181.22 2636.13H5435.43C5454.68 2636.13 5470.28 2651.73 5470.28 2670.97V2742.31Z" fill="white"/>
<path d="M5405.39 3981.25H3211.27C3175.43 3981.25 3146.38 3952.2 3146.38 3916.37V2742.31H5470.28V3916.37C5470.28 3952.2 5441.23 3981.25 5405.39 3981.25Z" fill="#572A0E"/>
<path d="M5358.74 2689.22C5358.74 2698.24 5351.42 2705.55 5342.4 2705.55C5333.38 2705.55 5326.06 2698.24 5326.06 2689.22C5326.06 2680.19 5333.38 2672.88 5342.4 2672.88C5351.42 2672.88 5358.74 2680.19 5358.74 2689.22Z" fill="#FF3C00"/>
<path d="M5246.43 2689.22C5246.43 2698.24 5239.12 2705.55 5230.09 2705.55C5221.08 2705.55 5213.76 2698.24 5213.76 2689.22C5213.76 2680.19 5221.08 2672.88 5230.09 2672.88C5239.12 2672.88 5246.43 2680.19 5246.43 2689.22Z" fill="#FF3C00"/>
<path d="M5134.13 2689.22C5134.13 2698.24 5126.82 2705.55 5117.8 2705.55C5108.78 2705.55 5101.46 2698.24 5101.46 2689.22C5101.46 2680.19 5108.78 2672.88 5117.8 2672.88C5126.82 2672.88 5134.13 2680.19 5134.13 2689.22Z" fill="#FF3C00"/>
<path d="M3146.38 3855.87V4264.7L3522.11 3888.97" fill="#572A0E"/>
<mask id="mask3_2202_774" style="mask-type:luminance" maskUnits="userSpaceOnUse" x="3244" y="2836" width="1969" height="943">
<path d="M3244.39 2836.3V3778.71H5212.74V2836.3H3244.39Z" fill="white"/>
</mask>
<g mask="url(#mask3_2202_774)">
<path d="M4557.3 2909.74H3266.86C3254.45 2909.74 3244.39 2899.7 3244.39 2887.29C3244.39 2874.89 3254.45 2864.83 3266.86 2864.83H4557.3C4569.71 2864.83 4579.77 2874.89 4579.77 2887.29C4579.77 2899.7 4569.71 2909.74 4557.3 2909.74Z" fill="#B9784F"/>
<path d="M4557.3 3052.67H3266.86C3254.45 3052.67 3244.39 3042.62 3244.39 3030.22C3244.39 3017.82 3254.45 3007.76 3266.86 3007.76H4557.3C4569.71 3007.76 4579.77 3017.82 4579.77 3030.22C4579.77 3042.62 4569.71 3052.67 4557.3 3052.67Z" fill="#B9784F"/>
<path d="M3941.69 3195.6H3266.86C3254.45 3195.6 3244.39 3185.55 3244.39 3173.14C3244.39 3160.74 3254.45 3150.69 3266.86 3150.69H3941.69C3954.09 3150.69 3964.15 3160.74 3964.15 3173.14C3964.15 3185.55 3954.09 3195.6 3941.69 3195.6Z" fill="#B9784F"/>
<path d="M4557.3 3481.46H3266.86C3254.45 3481.46 3244.39 3471.42 3244.39 3459.01C3244.39 3446.61 3254.45 3436.55 3266.86 3436.55H4557.3C4569.71 3436.55 4579.77 3446.61 4579.77 3459.01C4579.77 3471.42 4569.71 3481.46 4557.3 3481.46Z" fill="#FF3C00"/>
<path d="M3941.69 3624.39H3266.86C3254.45 3624.39 3244.39 3614.34 3244.39 3601.94C3244.39 3589.54 3254.45 3579.48 3266.86 3579.48H3941.69C3954.09 3579.48 3964.15 3589.54 3964.15 3601.94C3964.15 3614.34 3954.09 3624.39 3941.69 3624.39Z" fill="#FF3C00"/>
<path d="M3941.69 3767.32H3266.86C3254.45 3767.32 3244.39 3757.27 3244.39 3744.87C3244.39 3732.46 3254.45 3722.41 3266.86 3722.41H3941.69C3954.09 3722.41 3964.15 3732.46 3964.15 3744.87C3964.15 3757.27 3954.09 3767.32 3941.69 3767.32Z" fill="#B9784F"/>
<path d="M4557.3 3195.6H4072.36C4059.96 3195.6 4049.9 3185.55 4049.9 3173.14C4049.9 3160.74 4059.96 3150.69 4072.36 3150.69H4557.3C4569.71 3150.69 4579.77 3160.74 4579.77 3173.14C4579.77 3185.55 4569.71 3195.6 4557.3 3195.6Z" fill="white"/>
<path d="M5197.87 2874.65L4854.96 3217.55C4846.19 3226.32 4831.97 3226.32 4823.19 3217.55C4814.43 3208.78 4814.43 3194.56 4823.19 3185.78L5166.1 2842.88C5174.87 2834.11 5189.1 2834.11 5197.87 2842.88C5206.64 2851.66 5206.64 2865.87 5197.87 2874.65Z" fill="#FF3C00"/>
<path d="M5212.74 3523.32C5212.74 3634.99 5122.21 3725.53 5010.53 3725.53C4898.86 3725.53 4808.32 3634.99 4808.32 3523.32C4808.32 3411.64 4898.86 3321.11 5010.53 3321.11C5122.21 3321.11 5212.74 3411.64 5212.74 3523.32Z" fill="#FF3C00"/>
<path d="M4984.08 3664.24C4984.08 3727.46 4932.83 3778.71 4869.61 3778.71C4806.39 3778.71 4755.14 3727.46 4755.14 3664.24C4755.14 3601.02 4806.39 3549.77 4869.61 3549.77C4932.83 3549.77 4984.08 3601.02 4984.08 3664.24Z" fill="#B9784F"/>
</g>
<path d="M4547.54 6072.02C4547.54 6072.02 3863.72 6604.42 3755.28 6739.67C3714.38 6790.89 3643.06 6880.6 3569.17 6972.54C3447.84 7123.6 3319.12 7281.02 3303.82 7284.8C3279.42 7290.99 3074.22 7134.78 3068.03 7101.09C3064.25 7080.12 3251.06 6759.44 3412.77 6501.66C3511.25 6344.92 3600.26 6211.22 3631.54 6182.34C3714.21 6105.7 4222.9 5836.23 4222.9 5836.23L4547.54 6072.02Z" fill="#572A0E"/>
<path d="M3242.61 7171.2C3242.61 7171.2 3881.44 6261.9 4202.14 6108.76" stroke="#080706" stroke-width="0.818" stroke-miterlimit="10" stroke-linecap="round"/>
<path d="M5260.23 3737.18C5253.01 3753.67 5244.76 3770.86 5235.49 3788.39C5185.47 3883.94 5222.42 3979.66 5165.37 4004.07C5161.93 4005.45 5158.15 4006.82 5153.86 4007.68C5080.3 4024 4910.85 3926.05 4903.46 3877.06C4896.06 3828.09 4955.7 3744.22 4903.46 3734.08C4851.22 3723.94 4823.03 3811.76 4823.03 3811.76C4780.06 3816.23 4764.77 3744.22 4694.31 3744.22C4684.34 3744.22 4674.54 3745.6 4665.1 3748.01C4631.93 3756.26 4602.88 3776.7 4584.32 3792.51C4570.58 3804.03 4562.66 3813.14 4562.66 3813.14C4562.66 3813.14 4499.94 3773.44 4502.86 3695.24C4507.85 3571.34 4553.56 3480.94 4663.72 3462.55C4675.92 3324.72 4789.34 3251.17 4940.92 3246.53C5073.77 3242.4 5093.7 3361.84 5096.8 3391.58C5095.59 3369.41 5089.41 3296.54 5057.78 3246.53C5124.29 3243.61 5182.9 3291.04 5167.6 3445.71C5182.9 3399.65 5236.51 3370.61 5277.76 3404.29C5239.61 3404.29 5202.83 3468.57 5202.83 3468.57C5202.83 3468.57 5247.69 3497.26 5278.28 3550.37C5303.71 3594.19 5294.09 3658.98 5260.23 3737.18Z" fill="#421A00"/>
<path d="M5165.37 4004.06L5163.65 4026.75L5157.81 4107.18C5157.81 4107.18 5035.45 4211.84 4966.02 4107.18C4965.5 4106.49 4965.15 4105.8 4964.46 4105.11C4942.98 4073.15 4923.57 4061.98 4905.86 4059.92C4867.54 4055.27 4836.61 4092.74 4804.64 4052.18C4713.22 3936.18 4676.78 3801.79 4665.1 3748C4674.54 3745.59 4684.34 3744.22 4694.31 3744.22C4764.77 3744.22 4780.06 3816.22 4823.03 3811.76C4823.03 3811.76 4851.22 3723.94 4903.46 3734.08C4955.7 3744.22 4896.07 3828.09 4903.46 3877.06C4906.73 3898.89 4942.3 3930.51 4987.33 3957.32C5039.74 3988.77 5105.05 4013.69 5146.46 4008.88C5149.04 4008.54 5151.45 4008.18 5153.86 4007.67C5158.15 4006.82 5161.93 4005.44 5165.37 4004.06Z" fill="#FB9F83"/>
<path d="M5184.44 4153.74C5129.27 4191.38 5028.22 4197.58 5028.22 4197.58L4945.56 4185.38C4945.56 4185.38 4911.02 4135.18 4927.17 4107.17C4930.26 4101.67 4938 4094.12 4949 4085.18C4971.17 4066.97 5006.91 4043.59 5043.86 4024.34C5082.02 4004.58 5121.37 3988.94 5149.73 3987.22C5219.15 3983.27 5239.61 4115.94 5184.44 4153.74Z" fill="#080706"/>
<path d="M5168.12 5494.23C5045.07 5517.95 4784.71 5445.42 4660.11 5389.4C4623.33 5372.9 4598.24 5357.78 4592.23 5347.13C4568.34 5305.02 4592.39 5272.71 4651.69 5139.01C4658.39 5123.88 4665.44 5107.56 4673 5089.86C4713.22 4995.16 4713.39 4793.23 4713.21 4619.14C4712.7 4470.14 4712.02 4341.59 4735.73 4318.74C4787.11 4269.24 5043.52 4107.18 5043.52 4107.18L5094.56 4373.22C5094.56 4373.22 5123.43 4508.3 5153.85 4684.62C5209.87 5009.26 5271.41 5474.3 5168.12 5494.23Z" fill="#B9784F"/>
<path d="M5253.87 5612.64C5253.87 5624.84 5131.34 5910.63 5028.57 5951.53C4925.8 5992.43 4306.43 5947.41 4306.43 5947.41L4000.18 6147.62L4064.29 6750.83L4108.97 7171.19L4110.34 7184.77C4016.68 7245.95 3780.72 7262.45 3755.29 7209.69C3755.12 7209.52 3755.12 7209.34 3755.12 7209.34C3730.54 7156.24 3354.86 6025.1 3501.98 5829.01C3648.91 5633.09 4592.22 5347.12 4592.22 5347.12C4616.8 5362.76 4645.33 5376.85 4676.43 5389.39C4781.27 5432.35 4914.46 5459.34 5015.85 5475.14C5054.86 5481.16 5089.06 5485.63 5115.18 5488.72C5148.18 5492.68 5168.12 5494.22 5168.12 5494.22C5168.12 5494.22 5253.87 5600.26 5253.87 5612.64Z" fill="#572A0E"/>
<path d="M4149.18 7578.84H3352.81C3348.85 7564.74 3354.18 7550.48 3366.21 7536.05C3398.52 7497.21 3479.46 7458.19 3557.49 7424.51C3631.55 7392.54 3702.7 7365.05 3726.59 7346.14C3782.79 7301.63 3756.84 7215.02 3755.29 7209.7C3763.88 7227.39 3796.37 7237.36 3839.33 7240.28C3923.71 7246.3 4048.3 7225.33 4110.34 7184.78L4108.97 7171.19C4132.69 7216.57 4143.86 7440.84 4147.64 7536.05C4148.67 7562.34 4149.18 7578.84 4149.18 7578.84Z" fill="#3A1B07"/>
<path d="M3839.33 7240.29C3836.92 7278.27 3831.42 7339.79 3820.42 7356.29C3804.1 7380.86 3628.45 7466.62 3604.05 7458.38C3588.24 7453.22 3568.99 7436.03 3557.47 7424.52C3631.54 7392.55 3702.7 7365.06 3726.58 7346.15C3782.78 7301.64 3756.83 7215.02 3755.29 7209.7C3763.88 7227.4 3796.36 7237.37 3839.33 7240.29Z" fill="#65361A"/>
<path d="M4149.18 7578.84H3352.81C3348.85 7564.74 3354.18 7550.49 3366.21 7536.06H4147.64C4148.67 7562.35 4149.18 7578.84 4149.18 7578.84Z" fill="#65361A"/>
<path d="M4660.45 5438.01C4660.45 5438.01 4631.11 5594.21 4745.43 5646.28" stroke="#080706" stroke-width="0.818" stroke-miterlimit="10" stroke-linecap="round"/>
<path d="M4600.44 5563.58C4600.44 5563.58 3844.06 5886.2 3807.76 5986.25C3771.45 6086.3 4000.18 7171.2 4000.18 7171.2" stroke="#080706" stroke-width="0.818" stroke-miterlimit="10" stroke-linecap="round"/>
<path d="M5253.87 5612.63C5253.87 5624.83 5131.34 5910.63 5028.57 5951.53C4925.8 5992.43 4306.43 5947.41 4306.43 5947.41L4000.18 6147.62L4064.29 6750.83C4064.29 6750.83 3934.88 6061.86 3934.88 6016.83C3934.88 5978.34 4790.38 5732.42 5015.85 5475.14C5104.18 5489.06 5168.12 5494.22 5168.12 5494.22C5168.12 5494.22 5253.87 5600.26 5253.87 5612.63Z" fill="#080706"/>
<path d="M4850.52 4881.57C4797.42 4956.84 4711.83 5052.39 4651.68 5139.01C4658.38 5123.88 4665.43 5107.56 4672.99 5089.86C4713.21 4995.16 4713.38 4793.23 4713.21 4619.14L4896.58 4497.82C4896.58 4497.82 4936.28 4760.06 4850.52 4881.57Z" fill="#080706"/>
<path d="M4693.97 4949.78C4686.06 4957 4677.98 4964.22 4669.9 4970.92C4666.98 4971.95 4663.89 4972.64 4660.45 4972.98C4588.44 4983.12 4438.06 4881.38 4444.77 4756.62C4445.29 4747.34 4452.67 4728.78 4464.7 4704.54C4526.22 4580.46 4711.32 4304.3 4745.34 4317.01C4745.34 4317.01 4864.27 4335.4 4896.58 4497.8C4926.82 4650.24 4817.7 4835.15 4693.97 4949.78Z" fill="#725644"/>
<path d="M5115.18 5488.73C5089.06 5485.63 5054.86 5481.17 5015.85 5475.15C4914.45 5459.34 4781.27 5432.36 4676.43 5389.39C4768.89 5386.13 4966.69 5325.3 4990.58 4872.46C5001.41 4957.18 5017.74 5045 5040.42 5134.87C5070.85 5254.32 5099.54 5380.29 5115.18 5488.73Z" fill="#080706"/>
<path d="M5066.38 3994.95C5056.92 4005.95 5049.54 4015.92 5043.86 4024.34C5006.91 4043.58 4971.17 4066.96 4949 4085.18C4933.53 4068.16 4919.26 4061.46 4905.86 4059.91L4987.32 3957.31C5012.06 3972.26 5039.74 3985.5 5066.38 3994.95Z" fill="#080706"/>
<path d="M4660.45 4972.99C4621.95 5026.61 4553.04 5108.42 4496.33 5100.17C4494.26 5099.82 4492.03 5099.48 4489.28 5098.96C4419.16 4997.57 4416.58 4864.72 4420.71 4798.22L4444.77 4756.62C4438.06 4881.39 4588.44 4983.13 4660.45 4972.99Z" fill="#080706"/>
<path d="M5260.23 3737.18C5253.01 3753.67 5244.75 3770.86 5235.48 3788.39C5210.9 3835.3 5207.46 3882.05 5203.34 3920.72C5195.09 3914.36 5186.67 3908.51 5178.25 3903.54C5125.14 3935.15 5089.4 3967.98 5066.37 3994.96L5066.2 3995.13C4991.27 3968.32 4908.61 3910.92 4903.45 3877.06C4896.06 3828.09 4955.7 3744.22 4903.45 3734.08C4851.21 3723.94 4823.02 3811.76 4823.02 3811.76C4780.06 3816.23 4764.76 3744.22 4694.3 3744.22C4684.34 3744.22 4674.54 3745.6 4665.09 3748.01C4631.92 3756.26 4602.87 3776.7 4584.31 3792.51C4584.31 3792.51 4663.71 3680.98 4788.3 3703.5C4788.3 3703.5 4770.1 3668.78 4686.23 3672.9C4861.87 3615.67 4974.08 3638.18 5028.22 3701.43C5072.38 3753.16 5176.02 3817.09 5260.23 3737.18Z" fill="#080706"/>
<path d="M5196.65 5731.05C5163.99 5833.13 4960.01 5814.85 4935.26 5890.36C4882.73 6050.57 4853.62 5980.07 4651.69 6000.52C4536.21 6012.21 4452.34 6086.27 4401.82 6147.63H4000.18L4041.94 6117.9L4306.43 5947.42L4837.3 5910.64C4865.82 5792.23 4943.5 5788.28 5061.91 5775.9C5130.82 5768.86 5137.53 5652.51 5116.56 5498.7C5101.27 5388.02 5071.7 5257.93 5040.43 5134.88C5017.74 5045 5001.42 4957.18 4990.59 4872.46C4977.7 4773.3 4972.03 4678.6 4971.51 4589.41C5050.06 4998.77 5220.88 5655.43 5196.65 5731.05Z" fill="#080706"/>
<path d="M5490.69 5040.87C5490.69 5028.5 5490.69 5016.3 5490.51 5004.1C5485.54 4359.98 5347.87 4004.75 5178.26 3903.53C5231.36 3872.08 5301.99 3842.01 5395.3 3821.21C5367.3 3861.6 5338.08 3922.26 5351.83 3987.05C5376.41 4101.68 5654.13 4542.66 5547.92 5249.16C5471.26 5758.89 5496.7 6024.06 5576.79 6147.62H5004.68C5004.68 6147.62 5490.69 6004.64 5490.69 5040.87Z" fill="#080706"/>
<path d="M5617.34 6147.63H5004.68C5004.68 6147.63 5490.69 6004.65 5490.69 5040.88C5490.69 5028.5 5490.69 5016.3 5490.51 5004.1C5485.53 4359.98 5347.87 4004.76 5178.26 3903.54C5231.36 3872.09 5301.99 3842.01 5395.3 3821.22C5436.04 3811.94 5480.89 3804.54 5530.56 3799.39C5950.06 3756.6 6285.18 3921.06 6325.05 4107.18C6364.74 4293.3 6119.51 6147.63 5617.34 6147.63Z" fill="#E5C6BC"/>
<path d="M5490.69 5040.87C5490.69 6004.64 5004.68 6147.62 5004.68 6147.62H4000.18L4041.94 6117.9L4306.43 5947.41L4837.3 5910.63C4865.82 5792.22 4943.5 5788.27 5061.9 5775.9C5130.82 5768.86 5137.53 5652.5 5116.56 5498.7C5101.26 5388.02 5071.7 5257.93 5040.42 5134.87C5017.74 5044.99 5001.42 4957.18 4990.58 4872.46C4977.7 4773.3 4972.02 4678.6 4971.51 4589.41C4969.97 4386.27 4994.71 4212.7 5020.83 4087.24C5023.24 4075.04 5025.82 4063.35 5028.4 4052.18C5028.4 4051.84 5028.57 4051.33 5028.57 4050.98C5030.98 4045.66 5041.46 4024 5066.21 3995.13L5066.38 3994.96C5089.41 3967.98 5125.15 3935.15 5178.26 3903.53C5186.68 3908.51 5195.1 3914.35 5203.34 3920.71C5361.28 4041.02 5485.7 4392.11 5490.51 5004.1C5490.69 5016.3 5490.69 5028.5 5490.69 5040.87Z" fill="#BC8F85"/>
<path d="M5296.83 7578.84H4573.67C4548.91 7578.84 4538.09 7547.56 4557.68 7532.26L4738.64 7390.66C4818.91 7327.76 4865.82 7231.34 4865.82 7129.43V6147.62H5004.67V7129.43C5004.67 7231.34 5051.59 7327.76 5132.03 7390.66L5312.82 7532.26C5332.41 7547.56 5321.58 7578.84 5296.83 7578.84Z" fill="#E5C6BC"/>
<path d="M5848.4 3836.38C5848.4 3836.38 5850.39 3841.5 5853.95 3851.75" stroke="#080706" stroke-width="0.818" stroke-miterlimit="10" stroke-linecap="round"/>
<path d="M5475.9 6110.54C5471.88 6114.22 5467.84 6117.9 5463.77 6121.54" stroke="#080706" stroke-width="0.818" stroke-miterlimit="10" stroke-linecap="round"/>
<path d="M5004.67 6147.62V6415.72C4956.55 6440.81 4907.74 6460.06 4865.82 6474.15V6147.62H5004.67Z" fill="#080706"/>
<path d="M5196.65 5731.05C5163.99 5833.13 4960.01 5814.85 4935.26 5890.36C4882.73 6050.57 4853.62 5980.07 4651.69 6000.52C4536.21 6012.21 4452.34 6086.27 4401.82 6147.63H4000.18L4041.94 6117.9L4306.43 5947.42L4837.3 5910.64C4865.82 5792.23 4943.5 5788.28 5061.91 5775.9C5130.82 5768.86 5137.53 5652.51 5116.56 5498.7C5101.27 5388.02 5071.7 5257.93 5040.43 5134.88C5017.74 5045 5001.42 4957.18 4990.59 4872.46C4977.7 4773.3 4972.03 4678.6 4971.51 4589.41C5050.06 4998.77 5220.88 5655.43 5196.65 5731.05Z" fill="#080706"/>
<path d="M5490.69 5040.87C5490.69 5028.5 5490.69 5016.3 5490.51 5004.1C5485.54 4359.98 5347.87 4004.75 5178.26 3903.53C5231.36 3872.08 5301.99 3842.01 5395.3 3821.21C5367.3 3861.6 5338.08 3922.26 5351.83 3987.05C5376.41 4101.68 5654.13 4542.66 5547.92 5249.16C5471.26 5758.89 5496.7 6024.06 5576.79 6147.62H5004.68C5004.68 6147.62 5490.69 6004.64 5490.69 5040.87Z" fill="#080706"/>
<path d="M5324.28 1951.8C5224.52 1902.12 5104.51 1921.74 5025.65 2000.59C4928.31 2097.94 4925.07 2253.96 5015.36 2355.57L4976.46 2350.94C4971.75 2350.38 4967.47 2353.75 4966.91 2358.46C4966.35 2363.18 4969.71 2367.45 4974.43 2368.01L5033.7 2375.06C5036.06 2375.34 5038.3 2374.63 5040.03 2373.28C5041.75 2371.91 5042.97 2369.9 5043.24 2367.54L5050.07 2310.2C5050.63 2305.49 5047.27 2301.22 5042.55 2300.66C5037.83 2300.09 5033.56 2303.46 5033 2308.17L5028.66 2344.69C4943.87 2249.83 4946.74 2103.8 5037.8 2012.74C5111.43 1939.12 5223.48 1920.8 5316.63 1967.17C5320.87 1969.3 5326.03 1967.54 5328.15 1963.31C5330.27 1959.06 5328.53 1953.91 5324.28 1951.8Z" fill="#FF3C00"/>
<path d="M5101.19 2427.34C5200.95 2477.02 5320.97 2457.41 5399.83 2378.55C5497.17 2281.21 5500.41 2125.18 5410.11 2023.58L5449.02 2028.2C5453.73 2028.75 5458 2025.39 5458.56 2020.68C5459.12 2015.97 5455.76 2011.7 5451.05 2011.14L5391.78 2004.09C5389.42 2003.81 5387.18 2004.5 5385.45 2005.86C5383.72 2007.23 5382.51 2009.25 5382.23 2011.6L5375.41 2068.94C5374.85 2073.66 5378.21 2077.93 5382.92 2078.49C5387.64 2079.06 5391.91 2075.69 5392.47 2070.98L5396.82 2034.46C5481.6 2129.31 5478.74 2275.34 5387.67 2366.4C5314.05 2440.02 5201.99 2458.34 5108.85 2411.98C5104.6 2409.84 5099.45 2411.59 5097.32 2415.83C5095.21 2420.08 5096.95 2425.23 5101.19 2427.34Z" fill="#FF3C00"/>
<path d="M3667.74 2052.88H2731.14C2684.89 2052.88 2647.4 2015.4 2647.4 1969.15V1272.61C2647.4 1226.36 2684.89 1188.86 2731.14 1188.86H3667.74C3713.98 1188.86 3751.47 1226.36 3751.47 1272.61V1969.15C3751.47 2015.4 3713.98 2052.88 3667.74 2052.88Z" fill="#572A0E"/>
<path d="M2904.45 1494.48V1587.47C2904.45 1594.92 2910.48 1600.96 2917.93 1600.96H2969.41C2976.86 1600.96 2982.9 1594.92 2982.9 1587.47V1494.48C2982.9 1487.03 2988.94 1480.99 2996.38 1480.99H3001.36C3008.81 1480.99 3014.85 1487.03 3014.85 1494.48V1747.28C3014.85 1754.73 3008.81 1760.77 3001.36 1760.77H2996.38C2988.94 1760.77 2982.9 1754.73 2982.9 1747.28V1643.5C2982.9 1636.05 2976.86 1630.01 2969.41 1630.01H2917.93C2910.48 1630.01 2904.45 1636.05 2904.45 1643.5V1747.28C2904.45 1754.73 2898.4 1760.77 2890.95 1760.77H2885.96C2878.51 1760.77 2872.48 1754.73 2872.48 1747.28V1494.48C2872.48 1487.03 2878.51 1480.99 2885.96 1480.99H2890.95C2898.4 1480.99 2904.45 1487.03 2904.45 1494.48Z" fill="white"/>
<path d="M3083.9 1509.63H3059.82C3052.38 1509.63 3046.34 1503.59 3046.34 1496.14V1494.47C3046.34 1487.02 3052.38 1480.98 3059.82 1480.98H3166.92C3174.37 1480.98 3180.41 1487.02 3180.41 1494.47V1496.14C3180.41 1503.59 3174.37 1509.63 3166.92 1509.63H3142.85C3135.4 1509.63 3129.36 1515.67 3129.36 1523.12V1747.27C3129.36 1754.72 3123.32 1760.76 3115.87 1760.76H3110.88C3103.43 1760.76 3097.39 1754.72 3097.39 1747.27V1523.12C3097.39 1515.67 3091.35 1509.63 3083.9 1509.63Z" fill="white"/>
<path d="M3379.2 1640.38C3377.12 1603.43 3375.04 1562.34 3376.3 1530.8H3374.64C3368.4 1561.93 3360.94 1595.14 3352.22 1627.94L3317.77 1759.1H3297.42L3264.63 1633.32C3255.49 1597.63 3247.21 1563.18 3241.81 1530.8H3240.57C3240.57 1563.58 3238.89 1602.62 3237.25 1642.46L3232.43 1747.89C3232.1 1755.1 3226.17 1760.76 3218.96 1760.76H3217.51C3209.74 1760.76 3203.58 1754.22 3204.05 1746.47L3219.05 1493.68C3219.47 1486.55 3225.38 1480.98 3232.51 1480.98H3243.78C3249.94 1480.98 3255.32 1485.16 3256.85 1491.12L3287.06 1608.84C3296.6 1645.78 3303.66 1673.18 3309.46 1705.14H3310.7C3316.1 1673.18 3322.33 1646.61 3331.46 1608.84L3360.49 1491.25C3361.98 1485.22 3367.38 1480.98 3373.58 1480.98H3385.98C3393.12 1480.98 3399.02 1486.56 3399.44 1493.7L3414.06 1746.5C3414.51 1754.24 3408.35 1760.76 3400.59 1760.76H3397.86C3390.66 1760.76 3384.73 1755.11 3384.38 1747.93L3379.2 1640.38Z" fill="white"/>
<path d="M3471.89 1480.99H3476.88C3484.33 1480.99 3490.37 1487.03 3490.37 1494.48V1720.3C3490.37 1727.75 3496.4 1733.79 3503.85 1733.79H3555.74C3563.18 1733.79 3569.22 1739.83 3569.22 1747.28C3569.22 1754.73 3563.18 1760.77 3555.74 1760.77H3471.89C3464.44 1760.77 3458.4 1754.73 3458.4 1747.28V1494.48C3458.4 1487.03 3464.44 1480.99 3471.89 1480.99Z" fill="white"/>
<path d="M4094.7 1262.89C4129.74 1262.89 4138.02 1239.31 4138.02 1218.28C4138.02 1199.81 4136.11 1181.96 4134.21 1164.13C4132.3 1145.01 4130.38 1127.81 4130.38 1108.06C4130.38 1050.71 4165.42 1026.49 4210.66 1026.49H4218.31V1059.63H4208.75C4181.98 1059.63 4171.15 1078.74 4171.15 1107.41C4171.15 1124.62 4173.07 1140.54 4174.98 1155.84C4176.26 1172.41 4178.17 1187.7 4178.17 1202.99C4178.8 1252.7 4161.59 1269.9 4134.21 1277.54V1278.82C4161.59 1287.1 4178.8 1304.3 4178.17 1354.65C4178.17 1370.58 4176.26 1386.51 4174.98 1402.44C4173.07 1418.38 4171.15 1434.3 4171.15 1451.5C4171.15 1480.18 4180.71 1499.93 4209.39 1499.93H4218.31V1533.06H4210.02C4167.97 1533.06 4130.38 1512.04 4130.38 1451.5C4130.38 1432.39 4132.3 1413.27 4134.21 1394.8C4136.11 1376.31 4138.02 1357.83 4138.02 1339.99C4138.02 1319.6 4129.74 1294.75 4094.7 1294.75V1262.89Z" fill="#572A0E"/>
<path d="M4744.28 1294.74C4709.24 1294.74 4700.95 1319.61 4700.95 1339.99C4700.95 1357.84 4702.86 1376.3 4704.78 1394.78C4706.68 1413.26 4708.6 1432.38 4708.6 1451.5C4708.6 1512.04 4671.01 1533.06 4628.95 1533.06H4620.66V1499.94H4629.59C4658.26 1496.74 4667.82 1480.18 4667.82 1451.5C4667.82 1434.3 4665.9 1418.37 4664.62 1402.44C4662.72 1386.5 4660.81 1370.58 4660.81 1354.65C4660.18 1304.31 4677.37 1287.11 4704.78 1278.82V1277.55C4677.37 1269.9 4660.18 1252.7 4660.81 1202.99C4660.81 1187.7 4662.72 1172.41 4664.62 1155.85C4665.9 1140.55 4667.82 1124.62 4667.82 1107.41C4667.82 1078.74 4656.98 1062.81 4630.22 1059.62H4620.66V1026.5H4628.31C4673.55 1026.5 4708.6 1050.7 4708.6 1108.06C4708.6 1127.81 4706.68 1145.02 4704.78 1164.13C4702.86 1181.97 4700.95 1199.82 4700.95 1218.29C4700.95 1239.31 4709.24 1262.89 4744.28 1262.89V1294.74Z" fill="#572A0E"/>
<path d="M4525.64 1341.06V1218.49L4419.49 1157.2L4313.34 1218.49V1341.06L4419.49 1402.35L4525.64 1341.06Z" fill="#FF3C00"/>
<path d="M4624.81 2576.29H3688.21C3641.96 2576.29 3604.47 2538.81 3604.47 2492.56V1796.02C3604.47 1749.77 3641.96 1712.27 3688.21 1712.27H4624.81C4671.06 1712.27 4708.54 1749.77 4708.54 1796.02V2492.56C4708.54 2538.81 4671.06 2576.29 4624.81 2576.29Z" fill="#FF3C00"/>
<path d="M3970.09 2289.5C3963.49 2289.5 3956.9 2286.81 3951.86 2281.42L3835.49 2156.88C3825.42 2146.1 3825.42 2128.64 3835.49 2117.87L3953.82 1991.25C3963.9 1980.47 3980.21 1980.47 3990.28 1991.25C4000.34 2002.01 4000.34 2019.49 3990.28 2030.25L3890.17 2137.37L3988.31 2242.41C3998.38 2253.18 3998.38 2270.66 3988.31 2281.42C3983.28 2286.81 3976.68 2289.5 3970.09 2289.5Z" fill="white"/>
<path d="M4342.9 2289.5C4336.31 2289.5 4329.71 2286.81 4324.68 2281.42C4314.61 2270.66 4314.61 2253.18 4324.68 2242.41L4422.83 2137.37L4322.71 2030.25C4312.65 2019.49 4312.65 2002.02 4322.71 1991.25C4332.78 1980.47 4349.1 1980.47 4359.17 1991.25L4477.52 2117.87C4482.35 2123.04 4485.07 2130.05 4485.07 2137.37C4485.07 2144.69 4482.35 2151.7 4477.52 2156.88L4361.13 2281.42C4356.1 2286.81 4349.5 2289.5 4342.9 2289.5Z" fill="white"/>
<path d="M4098.73 2323.72C4095.5 2323.72 4092.22 2323.06 4089.02 2321.67C4075.83 2315.94 4069.51 2299.83 4074.86 2285.73L4190.38 1982.06C4195.75 1967.98 4210.7 1961.11 4223.98 1966.9C4237.17 1972.64 4243.5 1988.74 4238.14 2002.85L4122.62 2306.52C4118.54 2317.22 4108.91 2323.72 4098.73 2323.72Z" fill="white"/>
</g>
</g>
<defs>
<clipPath id="clip0_2202_774">
<rect width="8000" height="8000" fill="white"/>
</clipPath>
</defs>
</svg>
